<svg width="13" height="13" viewBox="0 0 13 13" fill="none" xmlns="http://www.w3.org/2000/svg">
<g clip-path="url(#clip0_2_1140)">
<path d="M12.8306 6.08181C12.8306 2.79815 10.1687 0.13623 6.88503 0.13623C3.60138 0.13623 0.939453 2.79815 0.939453 6.08181C0.939453 9.04937 3.11365 11.5091 5.95604 11.9552V7.80045H4.44642V6.08181H5.95604V4.77192C5.95604 3.28181 6.84369 2.45872 8.20177 2.45872C8.85207 2.45872 9.53267 2.57485 9.53267 2.57485V4.03802H8.78297C8.04442 4.03802 7.81403 4.49636 7.81403 4.96701V6.08181H9.463L9.19939 7.80045H7.81403V11.9552C10.6564 11.5091 12.8306 9.04937 12.8306 6.08181Z" fill="#595959"/>
</g>
<defs>
<clipPath id="clip0_2_1140">
<rect width="11.8912" height="11.8912" fill="white" transform="translate(0.939453 0.13623)"/>
</clipPath>
</defs>
</svg>
