<svg width="13" height="14" viewBox="0 0 13 14" fill="none" xmlns="http://www.w3.org/2000/svg">
<g clip-path="url(#clip0_2_1150)">
<path fill-rule="evenodd" clip-rule="evenodd" d="M6.60785 0.770996C5.12209 0.771767 3.68506 1.29799 2.5537 2.25558C1.42234 3.21316 0.670426 4.53966 0.432416 5.99789C0.194406 7.45611 0.485813 8.95097 1.25454 10.2152C2.02326 11.4794 3.21917 12.4305 4.62842 12.8984C4.93933 12.9561 5.05643 12.7634 5.05643 12.5996C5.05643 12.4357 5.05021 11.9607 5.04814 11.4413C3.30708 11.8175 2.93918 10.7066 2.93918 10.7066C2.65522 9.98531 2.24482 9.7957 2.24482 9.7957C1.6769 9.41031 2.28732 9.41753 2.28732 9.41753C2.91638 9.46184 3.24697 10.0595 3.24697 10.0595C3.80453 11.0106 4.71133 10.7355 5.06783 10.5747C5.12379 10.1718 5.2865 9.89772 5.46579 9.74212C4.07501 9.58549 2.61376 9.05172 2.61376 6.66725C2.60514 6.04885 2.83593 5.45082 3.25837 4.99688C3.19412 4.84026 2.97959 4.20756 3.31951 3.34816C3.31951 3.34816 3.84495 3.18123 5.04089 3.98601C6.0667 3.70708 7.149 3.70708 8.17481 3.98601C9.36971 3.18123 9.8941 3.34816 9.8941 3.34816C10.2351 4.2055 10.0205 4.83819 9.95629 4.99688C10.3801 5.45089 10.6113 6.04997 10.6019 6.66931C10.6019 9.05893 9.13757 9.58549 7.74472 9.73903C7.96857 9.93275 8.16859 10.3109 8.16859 10.8921C8.16859 11.7247 8.16133 12.3945 8.16133 12.5996C8.16133 12.7655 8.27429 12.9592 8.59141 12.8984C10.0008 12.4304 11.1969 11.4791 11.9656 10.2147C12.7343 8.95032 13.0255 7.45523 12.7873 5.99687C12.549 4.53851 11.7967 3.212 10.665 2.25458C9.53322 1.29716 8.09585 0.771278 6.60992 0.770996H6.60785Z" fill="#595959"/>
<path d="M2.71994 9.70593C2.70647 9.73685 2.65672 9.74612 2.61631 9.72448C2.57589 9.70284 2.54584 9.66265 2.56035 9.63071C2.57486 9.59877 2.62356 9.59052 2.66398 9.61216C2.7044 9.6338 2.73549 9.67502 2.71994 9.70593Z" fill="#595959"/>
<path d="M2.9736 9.98773C2.95214 9.99848 2.92759 10.0015 2.90414 9.99622C2.8807 9.99095 2.85983 9.97775 2.8451 9.95887C2.80468 9.9156 2.79638 9.85583 2.82747 9.82904C2.85856 9.80225 2.91453 9.81461 2.95495 9.85789C2.99537 9.90117 3.00469 9.96094 2.9736 9.98773Z" fill="#595959"/>
<path d="M3.22045 10.3454C3.18211 10.3721 3.11682 10.3454 3.08054 10.2918C3.07051 10.2822 3.06254 10.2706 3.05709 10.2579C3.05164 10.2451 3.04883 10.2314 3.04883 10.2176C3.04883 10.2037 3.05164 10.19 3.05709 10.1773C3.06254 10.1645 3.07051 10.153 3.08054 10.1434C3.11889 10.1176 3.18418 10.1434 3.22045 10.1959C3.25673 10.2485 3.25776 10.3186 3.22045 10.3454Z" fill="#595959"/>
<path d="M3.55339 10.6914C3.5192 10.7296 3.44976 10.7193 3.39276 10.6677C3.33576 10.6162 3.32229 10.5461 3.35649 10.509C3.39069 10.4719 3.46012 10.4823 3.51919 10.5327C3.57827 10.5832 3.58967 10.6543 3.55339 10.6914Z" fill="#595959"/>
<path d="M4.02416 10.8934C4.00862 10.9419 3.93814 10.9635 3.86767 10.9429C3.7972 10.9223 3.75056 10.8646 3.76404 10.8151C3.77751 10.7657 3.84902 10.743 3.92053 10.7657C3.99203 10.7883 4.03763 10.8429 4.02416 10.8934Z" fill="#595959"/>
<path d="M4.53599 10.9281C4.53599 10.9786 4.47796 11.0219 4.40334 11.0229C4.32872 11.0239 4.26758 10.9827 4.26758 10.9322C4.26758 10.8817 4.32561 10.8385 4.40023 10.8374C4.47484 10.8364 4.53599 10.8766 4.53599 10.9281Z" fill="#595959"/>
<path d="M5.01153 10.8485C5.02086 10.899 4.96904 10.9515 4.89443 10.9639C4.81981 10.9763 4.75452 10.9464 4.74519 10.8969C4.73586 10.8475 4.78975 10.7939 4.8623 10.7805C4.93484 10.7671 5.00221 10.798 5.01153 10.8485Z" fill="#595959"/>
</g>
<defs>
<clipPath id="clip0_2_1150">
<rect width="12.517" height="12.517" fill="white" transform="translate(0.347656 0.510254)"/>
</clipPath>
</defs>
</svg>
