<svg width="13" height="13" viewBox="0 0 13 13" fill="none" xmlns="http://www.w3.org/2000/svg">
<g clip-path="url(#clip0_2_1144)">
<path d="M6.31277 1.2069C7.90135 1.2069 8.08947 1.21387 8.71422 1.24174C9.29485 1.26728 9.60838 1.36483 9.81741 1.44612C10.0938 1.55295 10.2935 1.68301 10.5002 1.88971C10.7092 2.09874 10.837 2.29615 10.9438 2.57252C11.0251 2.78155 11.1226 3.09741 11.1482 3.67571C11.1761 4.30278 11.183 4.4909 11.183 6.07716C11.183 7.66575 11.1761 7.85387 11.1482 8.47862C11.1226 9.05924 11.0251 9.37278 10.9438 9.5818C10.837 9.85818 10.7069 10.0579 10.5002 10.2646C10.2912 10.4736 10.0938 10.6014 9.81741 10.7082C9.60838 10.7895 9.29252 10.887 8.71422 10.9126C8.08715 10.9405 7.89903 10.9474 6.31277 10.9474C4.72418 10.9474 4.53606 10.9405 3.91131 10.9126C3.33069 10.887 3.01715 10.7895 2.80813 10.7082C2.53175 10.6014 2.33202 10.4713 2.12531 10.2646C1.91629 10.0556 1.78855 9.85818 1.68172 9.5818C1.60043 9.37278 1.50289 9.05692 1.47734 8.47862C1.44947 7.85155 1.4425 7.66343 1.4425 6.07716C1.4425 4.48858 1.44947 4.30046 1.47734 3.67571C1.50289 3.09508 1.60043 2.78155 1.68172 2.57252C1.78855 2.29615 1.91861 2.09641 2.12531 1.88971C2.33434 1.68069 2.53175 1.55295 2.80813 1.44612C3.01715 1.36483 3.33301 1.26728 3.91131 1.24174C4.53606 1.21387 4.72418 1.2069 6.31277 1.2069ZM6.31277 0.13623C4.69863 0.13623 4.49658 0.143198 3.86254 0.171068C3.23082 0.198938 2.79651 0.301127 2.42027 0.447444C2.02777 0.600729 1.69565 0.802786 1.36586 1.1349C1.03374 1.4647 0.831686 1.79681 0.678401 2.18699C0.532084 2.56556 0.429895 2.99754 0.402025 3.62926C0.374155 4.26562 0.367188 4.46768 0.367188 6.08181C0.367188 7.69594 0.374155 7.898 0.402025 8.53204C0.429895 9.16376 0.532084 9.59806 0.678401 9.97431C0.831686 10.3668 1.03374 10.6989 1.36586 11.0287C1.69565 11.3585 2.02777 11.5629 2.41795 11.7139C2.79651 11.8602 3.2285 11.9624 3.86022 11.9902C4.49426 12.0181 4.69631 12.0251 6.31044 12.0251C7.92458 12.0251 8.12663 12.0181 8.76067 11.9902C9.39239 11.9624 9.8267 11.8602 10.2029 11.7139C10.5931 11.5629 10.9252 11.3585 11.255 11.0287C11.5848 10.6989 11.7892 10.3668 11.9402 9.97663C12.0865 9.59806 12.1887 9.16608 12.2165 8.53436C12.2444 7.90032 12.2514 7.69826 12.2514 6.08413C12.2514 4.47 12.2444 4.26794 12.2165 3.6339C12.1887 3.00219 12.0865 2.56788 11.9402 2.19164C11.7938 1.79681 11.5918 1.4647 11.2597 1.1349C10.9299 0.805108 10.5978 0.600729 10.2076 0.449767C9.82902 0.30345 9.39704 0.20126 8.76532 0.17339C8.12895 0.143198 7.9269 0.13623 6.31277 0.13623Z" fill="#595959"/>
<path d="M6.31384 3.02783C4.62771 3.02783 3.25977 4.39578 3.25977 6.08191C3.25977 7.76804 4.62771 9.13598 6.31384 9.13598C7.99997 9.13598 9.36792 7.76804 9.36792 6.08191C9.36792 4.39578 7.99997 3.02783 6.31384 3.02783ZM6.31384 8.06299C5.21995 8.06299 4.33276 7.1758 4.33276 6.08191C4.33276 4.98801 5.21995 4.10082 6.31384 4.10082C7.40774 4.10082 8.29493 4.98801 8.29493 6.08191C8.29493 7.1758 7.40774 8.06299 6.31384 8.06299Z" fill="#595959"/>
<path d="M10.2014 2.90685C10.2014 3.30168 9.8809 3.61986 9.4884 3.61986C9.09357 3.61986 8.77539 3.29936 8.77539 2.90685C8.77539 2.51203 9.09589 2.19385 9.4884 2.19385C9.8809 2.19385 10.2014 2.51435 10.2014 2.90685Z" fill="#595959"/>
</g>
<defs>
<clipPath id="clip0_2_1144">
<rect width="11.8912" height="11.8912" fill="white" transform="translate(0.367188 0.13623)"/>
</clipPath>
</defs>
</svg>
