<svg width="13" height="13" viewBox="0 0 13 13" fill="none" xmlns="http://www.w3.org/2000/svg">
<g clip-path="url(#clip0_2_1135)">
<path d="M4.07444 11.48C8.79668 11.48 11.3803 7.56674 11.3803 4.17419C11.3803 4.06418 11.3778 3.95172 11.3729 3.8417C11.8755 3.47824 12.3092 3.02804 12.6537 2.51226C12.1857 2.72051 11.6887 2.85652 11.1798 2.91564C11.7156 2.59446 12.1168 2.0899 12.309 1.4955C11.8049 1.79423 11.2537 2.00497 10.6789 2.11866C10.2916 1.70714 9.7795 1.43466 9.22182 1.34336C8.66413 1.25205 8.0919 1.34701 7.59359 1.61354C7.09528 1.88007 6.69866 2.30334 6.46503 2.81789C6.2314 3.33245 6.17379 3.90964 6.3011 4.46022C5.28042 4.409 4.2819 4.14386 3.37027 3.68198C2.45864 3.2201 1.65425 2.57179 1.00924 1.77909C0.681417 2.3443 0.581102 3.01312 0.728685 3.64964C0.876268 4.28615 1.26067 4.84259 1.80378 5.20586C1.39605 5.19292 0.99725 5.08314 0.640333 4.8856V4.91739C0.639967 5.51053 0.845024 6.0855 1.22064 6.54455C1.59627 7.0036 2.11927 7.31841 2.70075 7.43546C2.32305 7.5388 1.92664 7.55385 1.54219 7.47946C1.70628 7.98957 2.02552 8.43572 2.45537 8.75566C2.88523 9.07559 3.40424 9.25335 3.93998 9.26411C3.03046 9.97856 1.90692 10.3661 0.750346 10.3642C0.545236 10.3639 0.340328 10.3514 0.136719 10.3266C1.31168 11.0804 2.67847 11.4807 4.07444 11.48Z" fill="#595959"/>
</g>
<defs>
<clipPath id="clip0_2_1135">
<rect width="12.517" height="12.517" fill="white" transform="translate(0.136719 0.13623)"/>
</clipPath>
</defs>
</svg>
