<svg width="14" height="14" viewBox="0 0 14 14" fill="none" xmlns="http://www.w3.org/2000/svg">
<g clip-path="url(#clip0_2_1147)">
<path d="M12.9372 4.26528C12.9372 4.26528 12.815 3.40229 12.4385 3.02335C11.9618 2.52463 11.4289 2.52219 11.1844 2.49285C9.43395 2.36572 6.80587 2.36572 6.80587 2.36572H6.80098C6.80098 2.36572 4.1729 2.36572 2.42247 2.49285C2.178 2.52219 1.64505 2.52463 1.16833 3.02335C0.791839 3.40229 0.672048 4.26528 0.672048 4.26528C0.672048 4.26528 0.544922 5.27984 0.544922 6.29196V7.24051C0.544922 8.25263 0.669603 9.26719 0.669603 9.26719C0.669603 9.26719 0.791839 10.1302 1.16588 10.5091C1.6426 11.0078 2.26846 10.9907 2.54715 11.0445C3.54949 11.1399 6.80343 11.1692 6.80343 11.1692C6.80343 11.1692 9.43395 11.1643 11.1844 11.0396C11.4289 11.0103 11.9618 11.0078 12.4385 10.5091C12.815 10.1302 12.9372 9.26719 12.9372 9.26719C12.9372 9.26719 13.0619 8.25507 13.0619 7.24051V6.29196C13.0619 5.27984 12.9372 4.26528 12.9372 4.26528ZM5.51017 8.39198V4.87401L8.89122 6.63911L5.51017 8.39198Z" fill="#595959"/>
</g>
<defs>
<clipPath id="clip0_2_1147">
<rect width="12.517" height="12.517" fill="white" transform="translate(0.544922 0.510254)"/>
</clipPath>
</defs>
</svg>
